# xmcd
# 
# Track frame offsets:
#     150
#     58544
#     95322
#     133057
# 
# Disc length: 2320
# 
# Revision: 0
# Processed by: cddbd v1.5.2PL0 Copyright (c) Steve Scherf et al.
# Submitted via: fre:ac v1.0.17
# 
DISCID=2e090e04
DTITLE=I.E.M. - I.E.M.
DYEAR=1996
DGENRE=Progressive Rock
TTITLE0=The Gospel According to the I.E.M.
TTITLE1=The Last Will and Testament of Emma Peel
TTITLE2=Fie Kesh
TTITLE3=Deafman
EXTD=
EXTT0=
EXTT1=
EXTT2=
EXTT3=
PLAYORDER=
